<mxfile host="app.diagrams.net" modified="2023-08-07T03:39:35.775Z" agent="Mozilla/5.0 (Windows NT 10.0; Win64; x64) AppleWebKit/537.36 (KHTML, like Gecko) Chrome/115.0.0.0 Safari/537.36" version="21.6.6" etag="dCoBcg62-cpj195Iu4qG" type="github">
  <diagram name="페이지-1" id="3a0la9ubBGeXXji-YV7w">
    <mxGraphModel>
      <root>
        <mxCell id="0" />
        <mxCell id="1" parent="0" />
      </root>
    </mxGraphModel>
  </diagram>
</mxfile>
